<?xml version="1.0" encoding="UTF-8"?>
<svg width="1000px" height="618px" viewBox="0 0 1000 618" version="1.1" xmlns="http://www.w3.org/2000/svg">
    <g stroke="none" stroke-width="1" fill="none" fill-rule="evenodd">
        <path d="M500,0 C776.142375,0 1000,138.615781 1000,309.5 C1000,480.384219 776.142375,619 500,619 C223.857625,619 0,480.384219 0,309.5 C0,138.615781 223.857625,0 500,0 Z" fill="#000000"/>
        <path d="M382.5,206.333333 C394.166667,206.333333 408.333333,198.666667 417.5,188 C425.833333,178.166667 431.666667,164 431.666667,149.833333 C431.666667,147.333333 431.666667,144.833333 431.666667,144 C417.5,144.833333 402.5,152.5 392.5,163.166667 C383.333333,172.166667 376.666667,186.333333 376.666667,200.5 C376.666667,203 376.666667,205.5 377.5,206.333333 C379.166667,206.333333 380.833333,206.333333 382.5,206.333333 Z M345.833333,474.166667 C364.166667,474.166667 372.5,462.666667 397.5,462.666667 C423.333333,462.666667 429.166667,473.333333 449.166667,473.333333 C468.333333,473.333333 482.5,456.833333 496.666667,440.333333 C512.5,421.166667 519.166667,402 520,401.166667 C518.333333,400.333333 475,382.833333 475,331.166667 C475,286.833333 509.166667,267.666667 510.833333,266.833333 C485,229.833333 445.833333,226.333333 434.166667,225.5 C409.166667,223.833333 386.666667,240.333333 372.5,240.333333 C357.5,240.333333 338.333333,225.5 317.5,225.5 C264.166667,226.333333 208.333333,269.333333 208.333333,354.333333 C208.333333,397.666667 220.833333,442.833333 238.333333,474.166667 C252.5,499.166667 264.166667,519.166667 283.333333,519.166667 C301.666667,518.333333 314.166667,505.833333 337.5,505.833333 C360,505.833333 371.666667,519.166667 391.666667,519.166667 C412.5,519.166667 423.333333,501.666667 438.333333,476.666667 C455.833333,447.166667 463.333333,418.666667 464.166667,417.833333 C463.333333,417 410,398.5 410,331.166667 L410,331.166667 Z" fill="#FFFFFF"/>
    </g>
</svg> 