<?xml version="1.0" encoding="UTF-8"?>
<svg width="1000px" height="618px" viewBox="0 0 1000 618" version="1.1" xmlns="http://www.w3.org/2000/svg">
    <g stroke="none" stroke-width="1" fill="none" fill-rule="evenodd">
        <rect fill="#FFFFFF" x="0" y="0" width="1000" height="618" rx="50"/>
        <path d="M500,206.333333 L500,309.5 L583.333333,309.5 C575,350.333333 541.666667,375.333333 500,375.333333 C450,375.333333 408.333333,333.666667 408.333333,283.666667 C408.333333,233.666667 450,192 500,192 C522.5,192 543.333333,200.5 558.333333,215.5 L633.333333,140.5 C595.833333,105.666667 550,85.6666667 500,85.6666667 C391.666667,85.6666667 302,175.333333 302,283.666667 C302,392 391.666667,481.666667 500,481.666667 C600,481.666667 683.333333,408.666667 683.333333,283.666667 C683.333333,258.666667 680.833333,231.333333 675.833333,206.333333 L500,206.333333 Z" fill="#4285F4"/>
    </g>
</svg> 