<?xml version="1.0" encoding="UTF-8"?>
<svg width="32" height="32" viewBox="0 0 32 32" fill="none" xmlns="http://www.w3.org/2000/svg">
  <!-- Main Brain Shape -->
  <path d="M16 4C12 4 8 6 6 10C4 14 4 18 6 22C8 26 12 28 16 28C20 28 24 26 26 22C28 18 28 14 26 10C24 6 20 4 16 4Z" fill="#FF6B6B"/>
  
  <!-- Brain Folds -->
  <path d="M16 6C13 6 10 7.5 8.5 10.5C7 13.5 7 16.5 8.5 19.5C10 22.5 13 24 16 24C19 24 22 22.5 23.5 19.5C25 16.5 25 13.5 23.5 10.5C22 7.5 19 6 16 6Z" fill="#FF8E8E"/>
  
  <!-- Brain Stem -->
  <path d="M16 24C16 24 14 26 14 28H18C18 26 16 24 16 24Z" fill="#FF6B6B"/>
  
  <!-- Neurons -->
  <circle cx="12" cy="12" r="1" fill="#FFE5E5"/>
  <circle cx="20" cy="12" r="1" fill="#FFE5E5"/>
  <circle cx="16" cy="16" r="1" fill="#FFE5E5"/>
  
  <!-- Synapses -->
  <path d="M12 12L16 16M20 12L16 16" stroke="#FFE5E5" stroke-width="1" stroke-linecap="round"/>
</svg> 