<?xml version="1.0" encoding="UTF-8" standalone="no"?>
<svg width="200" height="200" viewBox="0 0 200 200" xmlns="http://www.w3.org/2000/svg">
  <defs>
    <linearGradient id="sticker-bg" x1="0%" y1="0%" x2="100%" y2="100%">
      <stop offset="0%" style="stop-color:#FFB6C1;stop-opacity:1" />
      <stop offset="100%" style="stop-color:#FF69B4;stop-opacity:1" />
    </linearGradient>
    <filter id="shadow">
      <feDropShadow dx="2" dy="2" stdDeviation="2" flood-color="#000" flood-opacity="0.3"/>
    </filter>
  </defs>
  
  <!-- Sticker Background -->
  <circle cx="100" cy="100" r="90" fill="url(#sticker-bg)" filter="url(#shadow)"/>
  
  <!-- Footprints -->
  <g transform="translate(60,70) rotate(-15)">
    <path d="M0,0 C5,0 10,5 10,15 C10,25 0,40 0,40 C0,40 -10,25 -10,15 C-10,5 -5,0 0,0" 
          fill="#FFF" stroke="#FF1493" stroke-width="2"/>
  </g>
  <g transform="translate(120,100) rotate(15)">
    <path d="M0,0 C5,0 10,5 10,15 C10,25 0,40 0,40 C0,40 -10,25 -10,15 C-10,5 -5,0 0,0" 
          fill="#FFF" stroke="#FF1493" stroke-width="2"/>
  </g>
</svg> 