<?xml version="1.0" encoding="utf-8"?>
<!-- Generator: Adobe Illustrator 26.5.0, SVG Export Plug-In . SVG Version: 6.00 Build 0)  -->
<svg version="1.1" id="Layer_1" xmlns="http://www.w3.org/2000/svg" xmlns:xlink="http://www.w3.org/1999/xlink" x="0px" y="0px"
	 viewBox="0 0 512 512" style="enable-background:new 0 0 512 512;" xml:space="preserve">
<style type="text/css">
	.st0{fill:#FFFFFF;}
	.st1{fill:#64A8F0;}
</style>
<g id="XMLID_24_">
	<rect id="XMLID_26_" class="st0" width="512" height="512"/>
	<rect id="XMLID_30_" x="36.72" y="36.72" class="st1" width="438.56" height="438.56"/>
	<path id="XMLID_31_" class="st0" d="M420.28,136.92h-15.21V77.09h14.34v6.73c1.76-4.1,6.29-7.61,12.14-8.05
		c9.8-0.44,16.53,5.41,16.53,17.85v43.3h-15.65v-45.2c0-5.41,0-9.8-3.51-10.68c-1.32-0.44-3.51,0-5.41,1.32
		c-2.19,2.19-3.07,4.97-3.07,9.36C420.28,92.6,420.28,136.92,420.28,136.92z"/>
	<path id="XMLID_34_" class="st0" d="M161.94,81.04c-3.51-3.07-8.05-5.41-13.46-5.41s-9.36,2.19-13.46,5.41
		c-6.29,5.41-10.24,15.21-10.24,25.89c0,11.12,3.95,20.63,10.24,25.89c4.1,3.07,8.05,5.41,13.46,5.41s9.8-2.19,13.46-5.41
		c6.73-5.41,10.24-14.77,10.24-25.89C172.18,96.26,168.67,86.31,161.94,81.04z M156.09,106.93c0,11.12,0,20.19-1.76,24.58
		c-1.32,2.19-2.63,3.51-5.85,3.51c-2.63,0-4.53-1.32-5.41-3.51c-2.19-4.53-2.19-13.46-2.19-24.58c0-10.68,0-20.04,2.19-24.58
		c0.88-2.19,2.63-3.51,5.41-3.51c3.07,0,4.53,1.32,5.85,3.51C156.53,86.75,156.09,96.26,156.09,106.93z"/>
	<path id="XMLID_35_" class="st0" d="M317.88,159.74v16.09h-3.07c-1.76-6.73-4.53-12.58-11.56-13.02c-4.53-0.44-8.48,2.19-8.92,6.29
		c-0.44,3.95,0.88,7.61,8.92,12c10.24,5.85,18.29,8.48,18.29,20.63c0,13.02-11.12,19.16-20.63,19.16c-4.1,0-17.85,0-17.85,0v-22.38
		h3.07c2.19,11.56,5.85,18.72,14.34,19.16c5.41,0,9.36-3.07,9.36-8.92c0-5.85-3.51-9.36-12-14.34c-9.36-5.85-15.21-9.36-15.21-17.41
		c0-10.68,7.61-17.41,19.6-17.41C306.32,159.74,317.88,159.74,317.88,159.74z"/>
	<path id="XMLID_36_" class="st0" d="M337.63,136.92v-43.3c0-12.58-6.73-18.29-16.53-17.85c-6.73,0.44-10.68,4.97-12.58,8.48
		c-2.19-6.29-7.17-8.92-14.34-8.48c-5.85,0.44-10.24,4.1-12,8.05v-6.73h-13.9v59.83h15.21c0,0,0-43.74,0-45.2
		c0-4.53,0.44-7.17,3.07-9.36c1.76-1.32,3.51-1.76,4.97-1.32c3.51,0.88,3.51,5.41,3.51,10.68v45.2h15.21V91.28
		c0-4.1,0.88-6.73,3.07-8.92c1.76-1.32,3.51-1.76,4.97-1.32c3.51,0.88,3.95,5.41,3.95,10.68v45.2L337.63,136.92L337.63,136.92z"/>
	<rect id="XMLID_37_" x="182.42" y="64.51" class="st0" width="15.65" height="72.41"/>
	<path id="XMLID_41_" class="st0" d="M253.51,136.92V64.51h-15.65v16.97c-1.32-3.07-4.53-5.41-8.92-5.41
		c-11.12,0-20.19,11.56-20.63,29.55c-0.44,12.14,3.51,32.18,19.16,32.18c6.29,0,9.8-3.51,11.12-6.73v5.85H253.51z M235.23,81.92
		c3.07,4.53,3.07,15.21,3.07,23.7c0,8.92,0.44,20.63-3.07,25.45c-1.32,1.76-2.63,2.63-4.97,2.63c-3.07,0-4.97-3.51-5.85-9.36
		c-0.44-5.41-0.44-12.14-0.44-19.16c0-12,0.88-25.45,6.73-25.45C233.03,79.73,233.91,80.6,235.23,81.92z"/>
	<path id="XMLID_47_" class="st0" d="M384,78.7c3.95,2.19,6.73,5.85,6.73,13.9v44.18h-14.77v-6.58c-1.76,4.97-6.73,8.05-13.46,8.05
		c-5.41,0-14.77-2.63-14.77-16.53c0-13.02,8.48-15.65,17.85-19.6c8.48-3.51,9.36-4.1,9.36-7.61c0-3.07,0-5.85,0-9.8
		c0-3.95-2.19-5.85-6.73-5.85c-1.76,0.44-4.97,1.32-4.97,3.51c-0.44,2.63,2.63,2.63,3.07,6.73c0.44,6.29-4.53,8.48-8.92,8.05
		c-3.07,0-6.73-1.76-7.17-6.73c-0.44-8.05,8.48-14.77,21.07-14.77C377.42,75.63,380.93,76.95,384,78.7z M375.08,101.08l-4.97,3.07
		c-4.97,3.07-5.85,7.17-6.29,11.56c-0.44,3.51-0.44,6.73,0,12c0.44,4.97,3.51,5.85,6.29,4.97c3.07-1.32,4.97-7.17,4.97-13.46
		C375.08,119.52,375.08,103.42,375.08,101.08z"/>
	<path id="XMLID_50_" class="st0" d="M162.82,162.38c4.1,2.63,6.29,5.85,6.29,13.9v44.62h-14.34v-6.73
		c-1.76,4.53-6.73,7.61-13.46,7.61c-5.85,0-14.77-2.19-14.77-16.09c0-13.02,8.48-15.65,17.41-19.6c8.92-4.1,9.8-4.53,9.8-7.61
		c0-3.07,0-5.85,0-9.8c0-4.53-2.19-6.29-6.73-5.85c-1.76,0-4.97,0.88-4.97,3.07c-0.44,3.07,2.63,3.07,3.07,7.17
		c0.44,5.85-4.53,8.05-8.92,8.05c-3.07-0.44-6.73-2.19-7.17-7.17c-0.44-7.61,8.48-14.34,21.07-14.34
		C156.09,159.74,159.74,160.62,162.82,162.38z M153.89,184.76l-4.97,3.07c-4.97,3.07-5.85,7.17-6.29,11.56
		c-0.44,3.51-0.44,7.17,0,12.14c0,5.41,3.07,6.29,5.85,4.97c3.51-1.32,5.41-6.73,5.41-13.46
		C153.89,203.04,153.89,186.95,153.89,184.76z"/>
	<path id="XMLID_55_" class="st0" d="M270.92,177.59c0-12.58-6.73-18.72-16.53-17.85c-4.97,0.44-8.92,2.63-11.12,5.85v-17.41h-15.21
		v41.11c0,15.21-10.68,29.55-21.5,29.11c-7.61,0-9.36-5.85-10.24-12c-1.32-8.92-1.32-19.16-0.44-30.43
		c0.88-7.17,2.63-13.02,8.05-13.02c4.1,0,4.53,2.63,2.63,4.53c-1.76,2.19-4.53,4.53-3.07,9.36c1.32,5.41,9.8,6.29,13.9,2.19
		c3.07-3.51,2.63-9.36,0.44-13.02c-2.63-4.53-7.17-6.29-13.9-6.29c-8.48,0-24.58,7.61-24.58,31.74c0,25.89,16.53,30.43,25.89,30.43
		c10.68,0,20.04-9.36,22.82-16.97v16.09h15.21v-45.2c0-4.53,0.88-7.17,3.07-9.36c1.76-1.32,4.1-1.76,5.41-1.32
		c3.51,0.88,3.51,5.41,3.51,10.68v45.06h15.65V177.59z"/>
	<path id="XMLID_56_" class="st0" d="M114.54,63.2v25.45h-3.07c-2.63-12.58-8.48-21.94-16.53-22.38c-5.41-0.44-8.48,2.63-11.12,7.17
		c-2.63,5.41-4.1,16.53-4.1,29.99c0,12.58,0.44,21.94,1.76,28.67c0.88,3.07,3.07,8.05,8.92,8.05c3.07,0,5.41-0.88,6.73-2.63
		c2.19-2.63,2.63-8.05,2.63-11.56c0-5.85,0-7.61,0-12.14s-1.32-7.17-3.51-8.48c-1.76-0.88-4.53-0.88-5.85-1.32v-3.07h25.01v63.93
		h-3.07c-1.32-4.97-2.19-8.48-4.53-12.58c-2.19-3.95-6.29-8.48-13.02-8.48c-7.17-0.44-12.58,4.1-12.58,10.68
		c0,8.92,5.41,11.12,15.21,16.53c9.36,5.41,21.5,9.8,21.5,25.45c0,15.21-13.02,24.58-27.65,24.58c-3.07,0-23.7,0-23.7,0v-30.87h3.07
		c4.1,23.26,13.9,27.21,20.63,27.21c8.48,0,12.58-5.41,12.58-13.02c-0.44-9.8-7.17-13.46-16.53-18.29
		c-13.46-7.61-19.6-11.12-19.6-23.7c0.44-10.68,8.92-17.41,18.29-20.04c-19.6-2.19-25.45-20.04-25.01-39.35
		C61,83.82,72.12,63.2,94.06,63.2C103.86,63.2,114.54,63.2,114.54,63.2z"/>
</g>
</svg>
