<?xml version="1.0" encoding="utf-8"?>
<!-- Generator: Adobe Illustrator 27.0.0, SVG Export Plug-In . SVG Version: 6.00 Build 0)  -->
<svg version="1.1" id="Layer_1" xmlns="http://www.w3.org/2000/svg" xmlns:xlink="http://www.w3.org/1999/xlink" x="0px" y="0px"
	 viewBox="0 0 512 512" style="enable-background:new 0 0 512 512;" xml:space="preserve">
<style type="text/css">
	.st0{fill:#8D7D7D;}
	.st1{fill:#224A3D;}
	.st2{fill:#8D7C71;}
</style>
<g id="XMLID_1_">
	<path id="XMLID_3_" class="st0" d="M195.54,239.33c0-2.24,0-22.58,0-22.58c0-1.54-1.4-2.1-0.56-2.1c0.84,0,4.91,0,4.91,0
		c1.12,0-0.42,0.28-0.42,1.96c0,1.26,0,22.58,0,22.58c0,2.38,0,2.67,4.21,2.95c1.82,0.14,6.59,0.28,10.8-4.77
		c1.26-1.54,0.84-0.42,0.84-0.42s-0.7,4.63-0.98,5.47c-0.14,0.7-0.42,0.56-0.98,0.56c-0.7,0-18.38,0-18.38,0
		c-0.98,0-0.42-0.28,0.28-1.26C195.68,241.29,195.54,239.33,195.54,239.33"/>
	<path id="XMLID_4_" class="st0" d="M220.65,218.43c0.28,0.7,9.82,24.41,9.82,24.41c0.14,0.28,0.28,0.28,0.28,0.28s1.96,0,2.1,0
		c0.14,0,0.42-0.14,0.42-0.28c0,0,8-21.04,8.42-22.3c0.42-1.26,2.1-4.21,3.23-5.19c0.84-0.7-0.42-0.56-0.42-0.56s-4.77,0-5.47,0
		c-0.28,0-0.98-0.28,0,1.12c1.68,2.52,0.56,5.19,0.56,5.19l-6.59,18.1c0,0-7.86-20.48-8.14-21.18c-0.28-0.7-0.28-1.82,0.14-2.38
		c0.84-1.12,0.56-0.84-0.14-0.84c-0.42,0-5.61,0-6.31,0C217.28,214.78,219.53,215.2,220.65,218.43"/>
	<path id="XMLID_5_" class="st0" d="M257.4,218.99c0,2.95-1.96,18.1-2.52,20.2c-0.56,1.82-1.4,3.23-1.68,3.51s-0.28,0.42,0.14,0.42
		c0.14,0,3.79,0,4.07,0c0.84,0,0-0.84,0-0.84s-0.7-0.98-0.42-3.23c0.14-0.84,2.38-20.2,2.38-20.2s8.84,23.29,9.12,23.99
		c0.28,0.84,0.7,0.84,1.12,0c0.14-0.28,9.4-24.55,9.4-24.55s2.1,19.08,2.24,20.62c0.14,1.54,0.28,2.67,0.14,3.09
		c-0.28,0.84-0.98,1.12-0.28,1.12c0.98,0,5.05,0,5.47,0c0.7,0,0.56-0.14,0.28-0.56c-0.28-0.42-0.98-1.12-1.68-4.07
		c-0.7-2.52-1.96-19.92-1.96-20.9c-0.14-2.67,1.54-2.81,0.7-2.81c-0.28,0-5.05,0-5.05,0s-0.56,0-0.84,0.98
		c-0.14,0.42-7.57,21.46-7.57,21.46l-8.14-22.44c0,0-3.93,0-5.19,0C255.02,214.78,257.54,215.06,257.4,218.99"/>
	<path id="XMLID_6_" class="st0" d="M323.05,215.2c0.28-0.28,0.28-0.42-0.42-0.42c-0.28,0-4.35,0-4.63,0
		c-0.98,0-0.56,0.42-0.56,0.42s0.7,0.84,0.7,2.1v10.66h-13.19c0,0,0-9.4,0-9.96c0-1.82,0.56-2.38,0.7-2.67
		c0.42-0.7,0.28-0.56-0.42-0.56c-0.14,0-3.23,0-4.35,0c-0.84,0-0.98,0-0.42,0.42c0,0,0.56,0.42,0.56,2.95c0,0,0,20.76,0,21.74
		c0,1.68-0.14,2.52-0.56,2.95s0.14,0.28,0.14,0.28s4.35,0,4.77,0s0.14-0.28,0.14-0.28s-0.56-0.14-0.56-3.09v-10.8h13.19
		c0,0,0.14,10.24,0.14,10.8c0,1.68,0,2.52-0.42,2.81c-0.28,0.28-0.84,0.42,0.28,0.42c0.56,0,4.21,0,4.63,0c0.56,0,0.84,0,0.28-0.42
		c-0.28-0.28-0.7-0.56-0.7-2.95c0-0.7,0-21.88,0-22.44C322.35,215.62,323.05,215.2,323.05,215.2"/>
	<path id="XMLID_7_" class="st1" d="M98.33,296.14c0.14,0,0.28-0.14,0.28-0.28"/>
	<path id="XMLID_8_" class="st1" d="M98.61,295.72v-24.83c0-0.14-0.14-0.28-0.28-0.28h-1.82c-0.14,0-0.28,0.14-0.28,0.28v24.83
		c0,0.14,0.14,0.28,0.28,0.28h1.82C98.47,296.14,98.61,296,98.61,295.72"/>
	<path id="XMLID_9_" class="st1" d="M115.87,295.72v-24.83c0-0.14-0.14-0.28-0.28-0.28h-1.82c-0.14,0-0.28,0.14-0.28,0.28v24.83
		c0,0.14,0.14,0.28,0.28,0.28h1.82C115.73,296.14,115.87,296,115.87,295.72"/>
	<path id="XMLID_10_" class="st1" d="M11.22,284.92c-0.14,0-0.28,0-0.42-0.14L2.38,274.4V296c0,0.14,0,0.28-0.28,0.28H0.28
		C0.14,296.28,0,296.14,0,296v-24.97c0-0.14,0.28-0.28,0.28-0.28h2.1l8.84,10.8"/>
	<path id="XMLID_11_" class="st1" d="M11.22,284.92c0.14,0,0.42,0,0.42-0.14l8.42-10.38V296c0,0.14,0,0.28,0.28,0.28h1.82
		c0.14,0,0.28-0.14,0.28-0.28v-24.97c0-0.14-0.28-0.28-0.28-0.28h-2.1l-8.84,10.8"/>
	<path id="XMLID_12_" class="st1" d="M86.55,270.89c0-0.14-0.14-0.28-0.28-0.28h-18.8c-0.14,0-0.28,0.14-0.28,0.28v1.54
		c0,0.28,0.14,0.28,0.28,0.28h18.8c0.14,0,0.28-0.14,0.28-0.28V270.89"/>
	<path id="XMLID_13_" class="st1" d="M75.33,295.86c0,0.14,0.14,0.28,0.28,0.28h1.82c0.14,0,0.28-0.14,0.28-0.28v-22.72l0,0
		c0-0.14,0.14-0.28,0.28-0.28h-2.95c0.14,0,0.28,0.14,0.28,0.42L75.33,295.86"/>
	<path id="XMLID_14_" class="st1" d="M65.93,270.61c0.14,0,0.28,0.14,0.28,0.28v1.54c0,0.14-0.14,0.28-0.28,0.28H55.69
		c-0.14,0-0.28,0.14-0.28,0.28v20.62c0,0.14,0.14,0.28,0.28,0.28h10.24c0.14,0,0.28,0.14,0.28,0.28v1.54c0,0.14-0.14,0.28-0.28,0.28
		H53.3c-0.14,0-0.28-0.14-0.28-0.28v-24.83c0-0.14,0.14-0.28,0.28-0.28L65.93,270.61"/>
	<path id="XMLID_15_" class="st1" d="M54.99,282.11v2.1h10.94c0.14,0,0.28-0.14,0.28-0.28v-1.4c0-0.14-0.14-0.28-0.28-0.28
		L54.99,282.11"/>
	<path id="XMLID_16_" class="st1" d="M132.56,270.61c0.14,0,0.28,0.14,0.28,0.28v1.54c0,0.14-0.14,0.28-0.28,0.28h-10.24
		c-0.14,0-0.28,0.14-0.28,0.28v20.62c0,0.14,0.14,0.28,0.28,0.28h10.38c0.14,0,0.28,0.14,0.28,0.28v1.54c0,0.14-0.14,0.28-0.28,0.28
		h-12.62c-0.14,0-0.28-0.14-0.28-0.28v-24.83c0-0.14,0.14-0.28,0.28-0.28L132.56,270.61"/>
	<path id="XMLID_17_" class="st1" d="M121.62,282.11v2.1h10.94c0.14,0,0.28-0.14,0.28-0.28v-1.4c0-0.14-0.14-0.28-0.28-0.28
		L121.62,282.11"/>
	<path id="XMLID_18_" class="st1" d="M200.73,270.61c0.14,0,0.28,0.14,0.28,0.28v1.54c0,0.14-0.14,0.28-0.28,0.28h-10.24
		c-0.14,0-0.28,0.14-0.28,0.28v20.62c0,0.14,0.14,0.28,0.28,0.28h10.38c0.14,0,0.28,0.14,0.28,0.28v1.54c0,0.14-0.14,0.28-0.28,0.28
		h-12.62c-0.14,0-0.28-0.14-0.28-0.28v-24.83c0-0.14,0.14-0.28,0.28-0.28L200.73,270.61"/>
	<path id="XMLID_19_" class="st1" d="M189.79,282.11v2.1h10.94c0.14,0,0.28-0.14,0.28-0.28v-1.4c0-0.14-0.14-0.28-0.28-0.28
		L189.79,282.11"/>
	<path id="XMLID_20_" class="st1" d="M57.09,269.49c0.84,0,1.54-0.7,1.54-1.54s-0.7-1.54-1.54-1.54s-1.54,0.7-1.54,1.54
		S56.25,269.49,57.09,269.49"/>
	<path id="XMLID_21_" class="st1" d="M62.14,269.49c0.84,0,1.54-0.7,1.54-1.54s-0.7-1.54-1.54-1.54c-0.84,0-1.54,0.7-1.54,1.54
		C60.6,268.79,61.3,269.49,62.14,269.49"/>
	<polyline id="XMLID_22_" class="st1" points="98.33,282.11 113.76,282.11 113.76,284.22 98.33,284.22 98.33,282.11 	"/>
	<path id="XMLID_23_" class="st1" d="M239.87,296.14c-0.14,0-0.28-0.14-0.28-0.28v-13.61h2.38v13.61c0,0.14-0.14,0.28-0.28,0.28
		H239.87"/>
	<polyline id="XMLID_24_" class="st1" points="241.55,281.83 233.28,271.31 230.19,271.17 239.59,283.37 241.55,281.83 	"/>
	<path id="XMLID_25_" class="st1" d="M138.73,274.68v21.18c0,0.14-0.14,0.28-0.28,0.28h-1.82c-0.14,0-0.28-0.14-0.28-0.28v-24.83
		c0-0.14,0.14-0.28,0.28-0.28h2.1l16.97,21.88v-21.6c0-0.14,0.14-0.28,0.28-0.28h1.82c0.14,0,0.14,0.14,0.14,0.28v24.83
		c0,0.14-0.14,0.28-0.28,0.28h-1.82c-0.14,0-0.56,0-0.56-0.28L138.73,274.68"/>
	<path id="XMLID_26_" class="st1" d="M163.84,274.68v21.18c0,0.14-0.14,0.28-0.28,0.28h-1.82c-0.14,0-0.28-0.14-0.28-0.28v-24.83
		c0-0.14,0.14-0.28,0.28-0.28h2.1l16.97,21.88v-21.6c0-0.14,0.14-0.28,0.28-0.28h1.82c0.14,0,0.14,0.14,0.14,0.28v24.83
		c0,0.14-0.14,0.28-0.28,0.28h-1.82c-0.14,0-0.56,0-0.56-0.28L163.84,274.68"/>
	<path id="XMLID_29_" class="st1" d="M209.01,296.84c-2.1,0-4.35-0.7-6.45-2.38l1.54-1.82c3.51,2.81,6.73,2.1,8.56,0.42
		c0.84-0.84,1.4-1.96,1.26-3.09c-0.14-1.12-0.7-2.38-2.38-3.79l-5.89-4.07h-0.14c-1.82-1.4-2.67-3.23-2.67-5.05
		c0-1.82,0.84-3.37,2.1-4.63c2.52-2.38,7.15-2.95,10.94,0.56l-1.68,1.82c-2.95-2.81-5.89-2.1-7.57-0.56
		c-0.84,0.84-1.4,1.82-1.4,2.81s0.56,2.1,1.82,3.09l5.89,4.07c2.1,1.54,3.23,3.51,3.37,5.47c0.14,1.96-0.7,3.79-1.96,5.05
		C212.94,296.14,211.11,296.84,209.01,296.84z M223.6,296.84c-2.1,0-4.35-0.7-6.45-2.38l1.54-1.82c3.51,2.81,6.73,2.1,8.56,0.42
		c0.84-0.84,1.4-1.96,1.26-3.09c-0.14-1.12-0.7-2.38-2.38-3.79l-5.89-4.07h-0.14c-1.82-1.4-2.67-3.23-2.67-5.05
		c0-1.82,0.84-3.37,2.1-4.63c2.52-2.38,7.15-2.95,10.94,0.56l-1.54,1.82c-2.95-2.81-6.03-2.1-7.72-0.56
		c-0.84,0.84-1.26,1.82-1.26,2.81s0.42,2.1,1.82,3.09l5.89,4.07h0.14c2.1,1.54,3.09,3.51,3.23,5.47c0.14,1.96-0.7,3.79-1.96,5.05
		C227.52,296.14,225.7,296.84,223.6,296.84z"/>
	<polyline id="XMLID_30_" class="st1" points="240.15,281.83 248.43,271.31 251.37,271.17 241.97,283.37 240.15,281.83 	"/>
	<path id="XMLID_31_" class="st1" d="M258.38,292.07c-0.14,0-0.28,0.14-0.28,0.28c0,0.14,0.14,0.28,0.28,0.28V292.07"/>
	<path id="XMLID_32_" class="st1" d="M265.68,292.77c0.14,0,0.28-0.14,0.28-0.28s-0.14-0.28-0.28-0.28V292.77"/>
	<path id="XMLID_33_" class="st1" d="M261.75,296.98c0,0.14,0.14,0.28,0.28,0.28c0.14,0,0.28-0.14,0.28-0.28H261.75"/>
	<path id="XMLID_34_" class="st1" d="M262.31,288.28c0-0.14-0.14-0.28-0.28-0.28c-0.14,0-0.28,0.14-0.28,0.28H262.31"/>
	<polyline id="XMLID_35_" class="st1" points="258.24,292.21 261.75,288 262.17,288 265.82,292.21 265.82,292.63 262.17,297.26 
		261.75,297.26 258.24,292.63 258.24,292.21 	"/>
	<path id="XMLID_36_" class="st1" d="M281.11,270.89c0-0.14-0.14-0.28-0.28-0.28H279c-0.14,0-0.28,0.14-0.28,0.28v24.83
		c0,0.14,0.14,0.28,0.28,0.28h12.62c0.14,0,0.28-0.14,0.28-0.28v-1.54c0-0.14-0.14-0.28-0.28-0.28h-10.38
		c-0.14,0-0.28-0.14-0.28-0.28v-22.72"/>
	<path id="XMLID_37_" class="st1" d="M346.62,295.86c0,0.14-0.14,0.28-0.28,0.28h-1.82c-0.14,0-0.28-0.14-0.28-0.28"/>
	<path id="XMLID_38_" class="st1" d="M344.23,295.86v-24.83c0-0.14,0.14-0.28,0.28-0.28h1.82c0.14,0,0.28,0.14,0.28,0.28v24.83"/>
	<path id="XMLID_39_" class="st1" d="M422.36,295.86c0,0.14-0.14,0.28-0.28,0.28h-1.82c-0.14,0-0.28-0.14-0.28-0.28"/>
	<path id="XMLID_40_" class="st1" d="M419.98,295.86v-24.83c0-0.14,0.14-0.28,0.28-0.28h1.82c0.14,0,0.28,0.14,0.28,0.28v24.83"/>
	<polyline id="XMLID_41_" class="st1" points="321.09,286.6 321.09,270.61 318.7,270.61 318.7,286.6 321.09,286.6 	"/>
	<polyline id="XMLID_42_" class="st1" points="339.32,286.6 339.32,270.61 336.94,270.61 336.94,286.6 339.32,286.6 	"/>
	<path id="XMLID_43_" class="st1" d="M336.94,286.6c0,4.35-3.51,7.86-7.86,7.86c-4.35,0-7.86-3.51-7.86-7.86h-2.38
		c0,5.75,4.63,10.24,10.24,10.24c5.75,0,10.24-4.63,10.24-10.24H336.94"/>
	<polyline id="XMLID_44_" class="st1" points="396.84,286.6 396.84,270.61 394.45,270.61 394.45,286.6 396.84,286.6 	"/>
	<polyline id="XMLID_45_" class="st1" points="415.07,286.6 415.07,270.61 412.69,270.61 412.69,286.6 415.07,286.6 	"/>
	<path id="XMLID_46_" class="st1" d="M412.69,286.6c0,4.35-3.51,7.86-7.86,7.86s-7.86-3.51-7.86-7.86h-2.38
		c0,5.75,4.63,10.24,10.24,10.24c5.75,0,10.24-4.63,10.24-10.24H412.69"/>
	<path id="XMLID_47_" class="st1" d="M357,296.7c-2.1,0-4.35-0.7-6.45-2.38l1.54-1.96c3.51,2.81,6.73,2.24,8.56,0.56
		c0.84-0.84,1.4-1.96,1.26-3.09c-0.14-1.12-0.84-2.52-2.38-3.79h-0.14v-0.14l-5.89-4.07v-0.14h-0.14c-1.82-1.4-2.67-3.23-2.67-5.05
		c0-1.82,0.84-3.37,2.1-4.63c2.52-2.38,7.15-2.81,10.94,0.56l-1.54,1.82c-2.95-2.81-6.03-2.24-7.72-0.56
		c-0.84,0.84-1.26,1.82-1.26,2.81s0.42,2.1,1.68,3.09l0.14,0.14l5.89,4.07l0.14,0.14c2.1,1.54,3.09,3.51,3.23,5.47
		c0.14,1.96-0.7,3.79-1.96,5.05C360.92,295.86,359.1,296.7,357,296.7z"/>
	<polyline id="XMLID_48_" class="st1" points="382.95,292.77 391.36,270.61 393.89,270.61 383.93,296.14 381.83,296.14 
		371.87,270.61 374.39,270.61 382.95,292.77 	"/>
	<path id="XMLID_49_" class="st1" d="M443.83,270.89c0-0.14-0.14-0.28-0.28-0.28h-18.8c-0.14,0-0.28,0.14-0.28,0.28v1.54
		c0,0.28,0.14,0.28,0.28,0.28h18.8c0.14,0,0.28-0.14,0.28-0.28V270.89"/>
	<path id="XMLID_50_" class="st1" d="M432.6,295.72c0,0.14,0.14,0.28,0.28,0.28h1.82c0.14,0,0.28-0.14,0.28-0.28v-22.72l0,0
		c0-0.14,0.14-0.28,0.28-0.28h-2.95c0.14,0,0.28,0.14,0.28,0.42L432.6,295.72"/>
	<path id="XMLID_51_" class="st1" d="M463.61,270.89c0-0.14-0.14-0.28-0.28-0.28h-18.8c-0.14,0-0.28,0.14-0.28,0.28v1.54
		c0,0.28,0.14,0.28,0.28,0.28h18.8c0.14,0,0.28-0.14,0.28-0.28V270.89"/>
	<path id="XMLID_52_" class="st1" d="M452.38,295.72c0,0.14,0.14,0.28,0.28,0.28h1.82c0.14,0,0.28-0.14,0.28-0.28v-22.72l0,0
		c0-0.14,0.14-0.28,0.28-0.28h-2.95c0.14,0,0.28,0.14,0.28,0.42L452.38,295.72"/>
	<path id="XMLID_53_" class="st1" d="M492.64,274.68v21.18c0,0.14-0.14,0.28-0.28,0.28h-1.82c-0.14,0-0.28-0.14-0.28-0.28v-24.83
		c0-0.14,0.14-0.28,0.28-0.28h2.1l16.97,21.88v-21.6c0-0.14,0.14-0.28,0.28-0.28h1.82c0.14,0,0.14,0.14,0.14,0.28v24.83
		c0,0.14-0.14,0.28-0.28,0.28h-1.82c-0.14,0-0.56,0-0.56-0.28L492.64,274.68"/>
	<polyline id="XMLID_54_" class="st2" points="0,258.97 512,258.97 512,258.26 0,258.26 	"/>
	<path id="XMLID_55_" class="st1" d="M37.45,272.71c6.03,0.42,10.38,4.91,10.38,10.52c0,5.75-4.77,10.52-10.52,10.52
		s-10.52-4.77-10.52-10.52C26.79,277.62,31.28,272.99,37.45,272.71v-2.52c-7.57,0.42-13.19,5.75-13.19,13.19
		c0,7.15,5.89,13.05,13.05,13.05c7.15,0,13.05-5.89,13.05-13.05c0-7.01-5.61-12.76-13.05-13.19L37.45,272.71"/>
	<path id="XMLID_56_" class="st1" d="M303.83,272.99c6.03,0.42,10.38,4.91,10.38,10.52c0,5.75-4.77,10.52-10.52,10.52
		s-10.52-4.77-10.52-10.52C293.17,277.9,297.66,273.27,303.83,272.99v-2.52c-7.57,0.42-13.19,5.75-13.19,13.19
		c0,7.15,5.89,13.05,13.05,13.05c7.15,0,13.05-5.89,13.05-13.05c0-7.01-5.61-12.76-13.05-13.19L303.83,272.99"/>
	<path id="XMLID_57_" class="st1" d="M474.55,272.85c6.03,0.42,10.38,4.91,10.38,10.52c0,5.75-4.77,10.52-10.52,10.52
		c-5.75,0-10.52-4.77-10.52-10.52C464.03,277.76,468.37,273.27,474.55,272.85v-2.52c-7.57,0.42-13.19,5.75-13.19,13.19
		c0,7.15,5.89,13.05,13.05,13.05c7.15,0,13.05-5.89,13.05-13.05c0-7.01-5.61-12.76-13.05-13.19L474.55,272.85"/>
</g>
</svg>
