<?xml version="1.0" encoding="UTF-8"?>
<svg xmlns="http://www.w3.org/2000/svg" version="1.1" viewBox="0 0 512 512">
  <defs>
    <style>
      .cls-1 {
        fill: #0190ff;
      }

      .cls-2 {
        fill: #2b01be;
      }
    </style>
  </defs>
  <!-- Generator: Adobe Illustrator 28.6.0, SVG Export Plug-In . SVG Version: 1.2.0 Build 709)  -->
  <g>
    <g id="Layer_1">
      <g>
        <path class="cls-1" d="M9.98,235.07c6.04-22.09,31.2-27.34,54.37-27.99,19.04-.53,40.28,1.98,40.28,1.98l-9.98,36.48s-21.23-2.52-40.28-1.98c-23.17.64-48.33,5.9-54.37,27.98l9.98-36.47Z"/>
        <path class="cls-2" d="M330.54,196.23c-30.5,0-38.31,29.52-42.68,45.5l-32.58,119.08h19.01l28.88-105.59h19.74l-13.14,48.05h19.01l15.76-57.62h-38.75c1.99-7.26,4.1-15,5.83-21.31,3.19-11.65,8.39-20.11,15.96-19.83,8.37.31,4.11,5.81,2.96,10-1.59,5.8,2.69,11.62,10.19,11.62,16.29.01,20.3-29.9-10.19-29.9ZM222.72,217.07h0l-23.58,86.2h19.81l8.73-31.92h17.21c18.99,0,31.59-10.48,35-25.05,3.18-13.6-4.76-29.23-26.04-29.23h-31.13ZM239.76,227.21h7.62c7.98,0,14.3,6.38,12.78,17.5-1.42,10.3-12.6,16.47-22.35,16.47h-7.33l9.28-33.97ZM427.65,243.91c-16.66,0-28.68,14.33-31.56,28.66-2.77,13.76,5.12,32.06,26.85,32.06,15.45,0,23.21-6.8,23.21-6.8l-3.55-8.78s-6.49,5.29-15.54,5.29-14.72-7.14-13.47-18.52h36.95c2.64-6.72,4.09-31.91-22.89-31.91ZM501.3,244.68c-12.39,0-19.7,12.8-19.7,12.8l3.23-11.83h-19.01l-15.76,57.62h19.01s4.58-16.83,6.91-25.24c3.6-13.14,10.93-21.36,14.46-21.7,4.07-.39,3.68,9.43,11.63,9.43,12.05,0,14.65-21.08-.77-21.08h0ZM351.69,245.65l-2.62,9.57h24.09l-37.87,48.05h53.48l2.62-9.57h-27.18l37.87-48.05h-50.39ZM427.58,253.42h0c10.33,0,7.98,13.65,7.98,13.65l-20.7-.05s3.44-13.6,12.72-13.6Z"/>
        <path class="cls-2" d="M154.54,303.42c-68.15-4.25-147.36-39.41-144.56-68.34L.58,269.46c-2.85,29.52,70.62,64.57,143.99,70.44l9.97-36.48Z"/>
        <path class="cls-2" d="M179.31,256.01c-6.04,22.09-31.2,27.34-54.37,27.99-19.04.53-40.28-1.98-40.28-1.98l9.98-36.48s21.23,2.52,40.28,1.98c23.17-.65,48.33-5.91,54.37-27.99l-9.98,36.48Z"/>
        <path class="cls-1" d="M34.75,187.66c68.16,4.25,147.36,39.41,144.57,68.34l9.4-34.38c2.85-29.52-70.62-64.57-143.99-70.44l-9.98,36.48Z"/>
      </g>
    </g>
  </g>
</svg>