<?xml version="1.0" encoding="UTF-8"?>
<svg xmlns="http://www.w3.org/2000/svg" version="1.1" viewBox="0 0 512 512">
  <defs>
    <style>
      .cls-1 {
        fill: #eb1000;
      }
    </style>
  </defs>
  <!-- Generator: Adobe Illustrator 28.6.0, SVG Export Plug-In . SVG Version: 1.2.0 Build 709)  -->
  <g>
    <g id="Layer_1">
      <path class="cls-1" d="M49.72,197.64h34.81l49.16,118.46h-36.79l-31.08-78.66-20.54,51.62h24.42l9.75,27.04H0l49.72-118.46ZM174.68,222.22c3.57,0,7.45.32,11.34,1.27v-29.34h30.77v116.72c-7.06,3.17-22.28,7.06-37.51,7.06-27.59,0-51.3-15.7-51.3-47.02s22.84-48.61,46.7-48.61v-.08ZM178.57,292.55c2.85,0,5.15-.56,7.45-1.27v-42.98c-2.3-.87-4.6-1.27-7.61-1.27-10.07,0-19.43,7.45-19.43,23.15s9.52,22.28,19.59,22.28v.08ZM271.58,222.22c25.61,0,47.42,17.29,47.42,47.73s-21.73,47.73-47.42,47.73-47.58-17.29-47.58-47.73,21.57-47.73,47.58-47.73ZM271.58,292.08c8.8,0,16.97-7.06,16.97-22.12s-8.17-22.12-16.97-22.12-16.81,7.06-16.81,22.12,7.61,22.12,16.81,22.12ZM326.37,194.15h30.92v29.34c3.73-.71,7.61-1.27,11.5-1.27,24.03,0,46.31,15.7,46.31,46.47,0,32.51-23.71,49-51.78,49-12.05,0-27.44-2.46-36.95-6.9v-116.72.08ZM364.04,292.4c10.63,0,20.3-7.61,20.3-23.31,0-14.67-9.52-21.57-19.82-21.57-2.85,0-5.15.32-7.22,1.27v42.42c1.74.71,4.04,1.27,6.74,1.27v-.08ZM467.6,222.22c23.15,0,44.4,14.83,44.4,44.72,0,4.04-.16,7.93-.71,11.81h-57.65c3.17,10.47,12.37,15.38,23.87,15.38,9.36,0,18-2.3,27.75-6.5v23.55c-9.04,4.6-19.82,6.5-30.92,6.5-29.34,0-52.18-17.68-52.18-47.73s20.7-47.73,45.44-47.73ZM483.14,259.49c-1.59-10.07-8.33-14.11-15.22-14.11s-12.53,4.28-14.83,14.11c0,0,30.05,0,30.05,0Z"/>
    </g>
  </g>
</svg>