<?xml version="1.0" encoding="utf-8"?>
<!-- Generator: Adobe Illustrator 24.3.0, SVG Export Plug-In . SVG Version: 6.00 Build 0)  -->
<svg version="1.1" id="Layer_1" xmlns="http://www.w3.org/2000/svg" xmlns:xlink="http://www.w3.org/1999/xlink" x="0px" y="0px"
	 viewBox="0 0 512 512" style="enable-background:new 0 0 512 512;" xml:space="preserve">
<style type="text/css">
	.st0{fill:#003B70;}
	.st1{fill:#D9261C;}
</style>
<g transform="matrix(2.4760713,0,0,2.4760713,-2.9521334,-2.9521466)">
	<path id="XMLID_5_" class="st0" d="M64.14,145.37l-0.43,0.43c-5.97,6.11-12.79,9.24-19.9,9.24c-14.78,0-25.58-11.09-25.58-26.43
		s10.8-26.43,25.58-26.43c7.11,0,14.07,3.27,19.9,9.38l0.43,0.43l9.52-11.51l-0.28-0.28C65.42,90.8,55.9,86.25,44.24,86.25
		c-11.8,0-22.45,3.98-30.27,11.09c-8.38,7.67-12.79,18.62-12.79,31.55s4.41,23.73,12.79,31.55c7.67,7.11,18.48,11.09,30.27,11.09
		c11.65,0,21.18-4.55,29.13-13.93l0.28-0.28L64.14,145.37z"/>
	<path id="XMLID_4_" class="st0" d="M83.33,169.67h16.91V87.39H83.33V169.67z"/>
	<path id="XMLID_3_" class="st0" d="M166.18,151.76c-4.55,2.7-8.67,4.12-12.51,4.12c-5.4,0-7.96-2.84-7.96-9.24v-43.77h17.2V87.39
		h-17.2V61.8l-16.49,8.81v16.77h-14.21v15.49h14.21v46.47c0,12.65,7.53,21.32,18.62,21.46c7.53,0.14,12.22-2.13,14.92-3.84
		l0.14-0.14l4.12-15.92L166.18,151.76L166.18,151.76z"/>
	<path id="XMLID_2_" class="st0" d="M180.11,169.67h16.91V87.39h-16.91V169.67z"/>
	<path id="XMLID_6_" class="st1" d="M207.11,72.75c-15.49-21.89-41.07-34.82-67.08-34.82S88.3,51,72.95,72.75l-0.85,1.14h19.47
		l0.28-0.28c13.22-13.64,30.41-20.89,48.18-20.89c17.76,0,34.96,7.25,48.18,20.89l0.28,0.28h19.47L207.11,72.75L207.11,72.75z"/>
</g>
</svg>
