<?xml version="1.0" encoding="utf-8"?>
<!-- Generator: Adobe Illustrator 24.3.0, SVG Export Plug-In . SVG Version: 6.00 Build 0)  -->
<svg version="1.1" id="Layer_1" xmlns="http://www.w3.org/2000/svg" xmlns:xlink="http://www.w3.org/1999/xlink" x="0px" y="0px"
	 viewBox="0 0 512 512" style="enable-background:new 0 0 512 512;" xml:space="preserve">
<style type="text/css">
	.st0{fill:#E97034;}
	.st1{fill:#0C63A5;}
</style>
<g id="XMLID_1_">
	<path class="st0" d="M108.44,279.16c0,0,11.94,64.41-32.56,96.12c1.42,0,42.94,4.83,49.34-50.19
		C128.34,298.64,115.97,288.26,108.44,279.16 M134.88,325.08c6.4,55.02,47.92,50.19,49.34,50.19
		c-44.36-31.71-32.56-96.12-32.56-96.12C144.27,288.26,131.9,298.64,134.88,325.08z M128.34,239.06c1-7.25,1.85-18.06-0.14-25.31
		c-2.13-7.96-11.8-15.64-12.51-32.56c-0.43-12.09,1.14-18.2,2.56-23.6c1.56-5.4,5.55-17.35,11.66-20.9
		c-2.42,10.38-0.28,22.46,2.99,30.57c2.99,7.39,11.23,21.04,11.09,35.55c-0.14,14.93-5.83,27.87-12.23,36.4L128.34,239.06z
		 M119.24,241.05c2.27-10.38,1.99-24.46-4.27-38.1c-6.11-13.22-19.19-22.04-25.17-27.58c-6.4-5.97-13.51-15.92-15.64-26.45
		c-3.98,5.83-2.7,18.34-1.71,23.89c1,5.55,2.13,11.8,7.68,22.61c7.68,15.07,19.76,17.92,25.02,24.17
		c4.83,5.83,8.67,15.92,10.81,22.89L119.24,241.05z M108.58,248.31c-2.27-10.38-8.53-23.03-20.05-32.84
		c-11.09-9.38-26.73-11.8-34.41-14.36c-8.25-2.7-18.91-8.82-25.31-17.35c-1.14,6.97,5.4,17.77,8.53,22.32
		c3.27,4.69,6.97,9.81,16.49,17.2c13.37,10.52,25.45,7.82,32.99,11.37c6.82,3.27,14.64,10.81,19.48,16.21L108.58,248.31z
		 M102.04,259.25c-6.4-8.39-17.49-17.2-31.99-21.19c-13.93-3.84-29.29,0.57-37.25,1.56c-8.67,1-20.9,0-30.28-5.12
		c1.85,6.82,12.37,13.79,17.2,16.64s10.38,5.97,22.18,8.67c16.49,3.84,26.45-3.55,34.69-3.55c7.54,0,17.77,3.55,24.6,6.4
		L102.04,259.25z M100.62,272.05c-9.38-4.83-23.18-8.25-37.96-5.69c-14.36,2.42-26.3,12.94-33.13,17.06
		c-7.39,4.55-18.91,8.82-29.57,8.1c4.55,5.4,17.06,7.39,22.61,7.82c5.69,0.57,11.94,1,23.74-1.56
		c16.64-3.55,22.46-14.36,29.86-17.92c6.82-3.27,17.63-4.27,25.02-4.55L100.62,272.05z M144.12,242.62
		c9.38-4.98,20.05-14.22,26.45-27.73c6.26-13.08,4.55-28.86,4.98-36.83c0.43-8.67,3.55-20.62,10.24-29.01
		c-7.11,0.71-15.78,9.81-19.34,14.08c-3.7,4.27-7.68,9.24-12.37,20.33c-6.68,15.64-1,26.59-2.42,34.69
		c-1.28,7.39-6.54,16.78-10.66,23.03L144.12,242.62z M153.93,251.01c10.52-0.57,24.17-4.41,35.69-13.93
		c11.23-9.24,16.35-24.31,20.05-31.42c4.12-7.68,11.94-17.06,21.47-21.9c-6.68-2.42-18.34,2.13-23.46,4.41s-10.81,5.12-19.91,13.22
		c-12.65,11.37-12.23,23.6-16.92,30.43c-4.27,6.26-13.08,12.51-19.34,16.35L153.93,251.01z M159.05,262.67
		c9.81,3.98,23.74,6.26,38.25,2.42c14.08-3.7,25.02-15.07,31.42-19.91c6.97-5.26,18.06-10.52,28.86-10.81
		c-5.12-4.98-17.63-5.83-23.18-5.83c-5.69,0-11.94,0-23.6,3.55c-16.21,4.98-21.04,16.35-28.15,20.47
		c-6.54,3.84-17.2,5.83-24.46,6.68L159.05,262.67z M158.91,275.46c7.11,7.82,18.91,15.64,33.7,18.34
		c14.22,2.56,29.01-3.13,36.97-4.69c8.53-1.85,20.76-1.85,30.57,2.42c-2.56-6.68-13.51-12.65-18.63-15.07
		c-5.12-2.42-10.95-4.98-22.89-6.68c-16.78-2.27-26.02,5.83-34.12,6.68c-7.54,0.71-18.06-1.99-25.02-4.27L158.91,275.46z"/>
	<path id="XMLID_6_" class="st1" d="M392.66,245.46c0,4.98-1,9.53-1.99,14.08l-6.54,31.71h17.49l6.97-32.56
		c0.85-4.27,2.13-9.53,2.13-14.64c0-13.37-8.67-21.47-21.9-21.47c-7.54,0-14.22,3.7-19.05,8.1l0,0l1.14-6.54h-17.06
		c-0.28,2.13-0.85,5.55-1.71,9.67l-12.37,57.44h17.49l7.11-33.7c2.27-10.09,6.68-21.47,18.77-21.47
		C388.82,236.08,392.66,239.78,392.66,245.46"/>
	<polyline id="XMLID_5_" class="st1" points="335.64,276.88 299.67,276.88 304.93,251.29 336.92,251.29 339.77,236.93 
		307.92,236.93 312.61,214.47 348.3,214.47 351,200.25 297.4,200.25 278.2,291.25 332.52,291.25 335.64,276.88 	"/>
	<path class="st1" d="M450.38,235.23c7.25,0,11.09,3.98,11.09,11.23c0,1.56-0.14,2.99-0.43,4.55h-29.57
		C434.89,241.77,439.58,235.23,450.38,235.23 M444.84,292.81c7.11,0,14.64-1.71,21.47-3.7l2.27-13.93
		c-6.54,2.99-13.51,4.83-20.62,4.83c-11.94,0-18.63-4.55-18.63-16.92h47.35c1-4.98,1.71-9.95,1.71-14.93
		c0-17.06-10.95-25.59-27.44-25.59c-22.04,0-38.25,20.05-38.25,40.95C412.42,283.43,425.5,292.81,444.84,292.81z"/>
	<path id="XMLID_2_" class="st1" d="M511.95,200.25c-2.56,0-8.39,0-17.49,0l-19.19,91h17.49L511.95,200.25"/>
</g>
</svg>
