<?xml version="1.0" encoding="utf-8"?>
<!-- Generator: Adobe Illustrator 19.2.1, SVG Export Plug-In . SVG Version: 6.00 Build 0)  -->
<svg version="1.1" id="layer" xmlns="http://www.w3.org/2000/svg" xmlns:xlink="http://www.w3.org/1999/xlink" x="0px" y="0px"
	 viewBox="0 0 652 652" style="enable-background:new 0 0 652 652;" xml:space="preserve">
<style type="text/css">
	.st0{fill:#3FA7DF;}
</style>
<g>
	<path class="st0" d="M107,260.9c34.8,5.5,61.1,33.9,61.1,70.5c0,40.4-31.9,72.4-73.5,72.4c-41.6,0-73.5-32-73.5-72.4
		c0-36.7,26.3-65,61.1-70.5v-21.2H107V260.9z M139.2,331.5c0-22.3-12.9-39.2-32.2-44.2v42.3H82.2v-42.3c-19.3,5-32.2,21.9-32.2,44.2
		c0,25.7,19.2,45.1,44.6,45.1C120,376.6,139.2,357.2,139.2,331.5"/>
	<path class="st0" d="M245,304.1v26.3c-11.7,0.2-27.6,4-34.7,11.4v59.7h-26.3v-97.1h26.3v10.3C220.4,306.9,234.3,303.6,245,304.1"/>
	<path class="st0" d="M250.6,386.1l14.6-18.7c6.5,8.1,16.3,12.7,26.5,12.7c6.3,0,10.3-2.8,10.3-7.2c0-6.7-6.3-8.1-18.5-10.8
		c-19.5-4.3-29.1-13.9-29.1-29.7c0-17,15.7-29.9,36.2-29.9c13.8,0,26,4.8,35,14.1l-12.9,17.3c-6.7-5.9-13.8-8.6-21.8-8.6
		c-6.3,0-10.3,2.6-10.3,6.4c0,5.3,4.6,6.4,18.2,9.3c18.6,3.8,28.9,15,28.9,31.3c0,17.8-14.8,30.7-35.3,30.7
		C275.5,403.1,259.4,396.7,250.6,386.1"/>
	<path class="st0" d="M409.9,396.8c-7.8,3.9-16.2,5.9-24.1,5.9c-19.9,0-35.8-13-35.8-37.6v-37h-15.8v-23.7H350v-30.9h26.1v30.9H402
		l-6.6,23.7h-19.3V362c0,12,6,17.7,14.4,17.7c4,0,8.6-1.3,13.3-3.8L409.9,396.8z"/>
	<path class="st0" d="M463.6,379.6c11.3,0,18.6-5,23.7-12.2l16.9,16.6c-8.9,11.9-23.9,19.4-40.6,19.4c-29.6,0-51.9-21.7-51.9-50.5
		c0-28.7,21.8-50.4,50.7-50.4c27.5,0,46.9,21.5,46.9,49c0,3.4-0.3,6.9-0.7,9.4h-69.3C442.4,372.3,451.8,379.6,463.6,379.6
		 M440,342.3H483c-2.7-10.4-10.4-17.1-20.6-17.1C451.6,325.2,443.3,331.8,440,342.3"/>
	<path class="st0" d="M621.1,261.7v139.9h-26.3V397c-7.1,4.2-15.4,6.5-24.3,6.5c-28.4,0-49.8-21.7-49.8-50.4
		c0-28.7,21.4-50.4,49.8-50.4c8.9,0,17.3,2.2,24.3,6.4v-47.3H621.1z M594.8,370.4v-34.7c-4.4-5.2-11.8-9-20.8-9
		c-15.2,0-26.1,11.4-26.1,26.4c0,15,11,26.3,26.1,26.4C582.9,379.5,590.4,375.6,594.8,370.4"/>
</g>
</svg>
