<?xml version="1.0" encoding="utf-8"?>
<!-- Generator: Adobe Illustrator 26.5.0, SVG Export Plug-In . SVG Version: 6.00 Build 0)  -->
<svg version="1.1" id="Layer_1" xmlns="http://www.w3.org/2000/svg" xmlns:xlink="http://www.w3.org/1999/xlink" x="0px" y="0px"
	 viewBox="0 0 512 512" style="enable-background:new 0 0 512 512;" xml:space="preserve">
<style type="text/css">
	.st0{fill:#007AC2;}
</style>
<g id="g2997" transform="matrix(3.6623329,0,0,3.6623329,-0.7,-0.123)">
	<path id="path6" class="st0" d="M94.76,61.55c-0.85-0.71-2.28-1-3.56-1c-1.42,0-2.84,0.43-3.84,1.28v-9.1h-4.55V82.6h4.55V66.95
		c0-1.14,0.85-2.28,2.56-2.42c0.71,0,1.85,0.28,2.28,1.14c0.57,0.85,0.57,1.99,0.57,3.13v13.65h4.55V68.52
		C97.32,64.53,96.75,62.97,94.76,61.55"/>
	<path id="path8" class="st0" d="M57.93,71.79c0,2.99-0.14,3.7-0.14,3.98c-0.14,1.56-0.85,3.27-2.7,3.27c-1.85,0-2.7-1.85-2.7-3.41
		c0,0-0.14-1-0.14-3.98c0-2.99,0.14-4.12,0.14-4.12c0-1.71,0.85-3.27,2.7-3.27c1.85,0,2.7,1.71,2.7,3.27
		C57.79,67.66,57.93,68.8,57.93,71.79 M62.34,68.23c-0.71-6.4-4.27-7.82-7.25-7.82c-4.27,0-6.83,2.7-7.25,7.82
		c0,0.43-0.14,1.14-0.14,3.56c0,1.71,0.14,3.13,0.14,3.56c0.28,4.69,2.99,7.68,7.25,7.68s6.97-2.99,7.25-7.68
		c0-0.28,0.14-1.85,0.14-3.56C62.34,70.93,62.34,68.8,62.34,68.23z"/>
	<path id="path10" class="st0" d="M104.86,69.08c0-1,0-1.14,0-1.42c0.14-1.85,1-3.27,2.7-3.27c2.13,0,2.7,2.13,2.7,3.27
		c0,0.57,0.14,1,0.14,1.42H104.86 M110.55,75.06c0,0,0,0.28,0,0.71c-0.14,1-0.57,3.27-2.7,3.27c-1.85,0-2.56-1.71-2.7-3.41
		c0-0.43-0.14-1-0.14-2.84h10.1c0,0,0-1.56,0-2.42c0-0.43,0-1-0.14-2.13c-0.14-1.85-0.85-3.98-1.99-5.4
		c-1.28-1.56-3.13-2.42-5.26-2.42c-4.12,0-6.68,2.7-7.11,7.82c0,0.43-0.14,1.14-0.14,3.56c0,1.71,0.14,3.13,0.14,3.56
		c0.28,4.69,2.99,7.68,7.11,7.68s6.83-2.99,7.11-7.82h-4.27V75.06z"/>
	<path id="path12" class="st0" d="M33.32,37.37h73.67l28.16,32.99l-28.16,32.43H33.32L5.02,70.22L33.32,37.37 M108.7,33.67H31.48
		L0.19,70.08l31.29,36.12h77.23l31.29-35.98L108.7,33.67z"/>
	<path id="path14" class="st0" d="M34.18,56.57h2.13c2.28,0,3.56,1.28,3.7,3.41c0,0.14,0,0.28,0,0.71c0,0.43,0,0.57,0,0.71
		c-0.14,1.28-0.71,3.56-3.41,3.56h-2.42L34.18,56.57 M44.99,80.6l-0.43-7.4c-0.14-3.27-1-5.26-2.7-6.26
		c1.28-0.71,2.84-2.56,2.84-6.4c0-5.83-3.56-7.82-7.82-7.82h-6.97v29.58h4.41V68.8h2.42c1.42,0,3.13,1.28,3.27,4.84l0.43,6.97
		c0,1,0.28,1.85,0.28,1.85h4.41C45.13,82.45,44.99,81.6,44.99,80.6z"/>
	<path id="path16" class="st0" d="M75.56,74.92c0,0.28,0,0.57,0,0.85c-0.14,1.71-0.71,3.41-2.7,3.41c-1.85,0-2.7-1.85-2.7-3.27
		c-0.14-0.85,0-1.56-0.14-3.98c0-2.99,0.14-3.7,0.14-4.12c0.14-1.85,0.85-3.27,2.7-3.27s2.7,1.71,2.7,3.27c0,0,0,0.43,0,1.28h4.55
		c0-0.28,0-0.57,0-0.71c-0.57-6.26-4.27-7.68-7.25-7.68c-4.27,0-6.83,2.7-7.25,7.82c0,0.43-0.14,1.14-0.14,3.56
		c0,1.71,0.14,3.13,0.14,3.56c0.28,4.69,2.99,7.68,7.25,7.68c4.41,0,6.83-2.7,7.25-7.68c0-0.14,0-0.28,0-0.43h-4.55"/>
</g>
</svg>
