<?xml version="1.0" encoding="UTF-8"?>
<svg width="1000px" height="618px" viewBox="0 0 1000 618" version="1.1" xmlns="http://www.w3.org/2000/svg">
    <g stroke="none" stroke-width="1" fill="none" fill-rule="evenodd">
        <path d="M750,0 L250,0 C111.928813,0 0,138.615781 0,309.5 C0,480.384219 111.928813,619 250,619 L750,619 C888.071187,619 1000,480.384219 1000,309.5 C1000,138.615781 888.071187,0 750,0 Z" fill="#003087"/>
        <path d="M458.333333,206.333333 C475,189.666667 500,181.166667 533.333333,181.166667 C591.666667,181.166667 633.333333,206.333333 658.333333,256.333333 C666.666667,273 675,293 675,317.166667 C675,384.666667 633.333333,418.666667 550,418.666667 L516.666667,418.666667 L500,488.666667 L425,488.666667 L458.333333,206.333333 Z M541.666667,231.333333 C525,231.333333 508.333333,239.833333 500,256.333333 L483.333333,368.833333 L508.333333,368.833333 C550,368.833333 575,351.333333 583.333333,317.166667 C591.666667,282.166667 575,231.333333 541.666667,231.333333 Z" fill="#FFFFFF"/>
        <path d="M341.666667,130.333333 C358.333333,113.666667 383.333333,105.166667 416.666667,105.166667 C475,105.166667 516.666667,130.333333 541.666667,180.333333 C550,197 558.333333,217 558.333333,241.166667 C558.333333,308.666667 516.666667,342.666667 433.333333,342.666667 L400,342.666667 L383.333333,412.666667 L308.333333,412.666667 L341.666667,130.333333 Z M425,155.333333 C408.333333,155.333333 391.666667,163.833333 383.333333,180.333333 L366.666667,292.833333 L391.666667,292.833333 C433.333333,292.833333 458.333333,275.333333 466.666667,241.166667 C475,206.166667 458.333333,155.333333 425,155.333333 Z" fill="#009CDE"/>
    </g>
</svg> 