<?xml version="1.0" encoding="UTF-8"?>
<svg width="1000px" height="324px" viewBox="0 0 1000 324" version="1.1" xmlns="http://www.w3.org/2000/svg">
    <g stroke="none" stroke-width="1" fill="none" fill-rule="evenodd">
        <path d="M651.666667,0.676666667 L348.333333,0.676666667 C156.666667,0.676666667 0,157.343333 0,349.01 L0,652.343333 C0,844.01 156.666667,1000.67667 348.333333,1000.67667 L651.666667,1000.67667 C843.333333,1000.67667 1000,844.01 1000,652.343333 L1000,349.01 C1000,157.343333 843.333333,0.676666667 651.666667,0.676666667" fill="#1A1F71"/>
        <path d="M416.666667,723.343333 L333.333333,277.343333 L250,277.343333 L166.666667,723.343333 L250,723.343333 L266.666667,652.343333 L316.666667,652.343333 L333.333333,723.343333 L416.666667,723.343333 Z M283.333333,585.676667 L300,514.676667 L316.666667,585.676667 L283.333333,585.676667 Z" fill="#FFFFFF"/>
        <path d="M500,277.343333 L416.666667,277.343333 L416.666667,723.343333 L500,723.343333 L500,277.343333 Z" fill="#FFFFFF"/>
        <path d="M833.333333,277.343333 L750,277.343333 L666.666667,514.676667 L583.333333,277.343333 L500,277.343333 L633.333333,723.343333 L700,723.343333 L833.333333,277.343333 Z" fill="#FFFFFF"/>
    </g>
</svg> 